[img]http://img84.imageshack.us/img84/4318/postersh.jpg [/img]
[code]
The Rite TS READNFO XViD - IMAGiNE

Ripper ...........:IMAGiNE                                         IMDB Rating.......:6.1/10                             
Video Codec.......:XVID                                            Release Date......:28/03/11
Audio Codec.......:MP3                                             Theatre Date......:28/01/11
Audio Bitrate.....:128                                             Runtime...........:1h 45mn
Subtitles.........:yes                                             Language..........:ENGLISH
Resolution........:704 x 304                                       IMDb URL.......... http://www.imdb.com/title/tt1161864/
DETAILS:



Video
ID                               : 0
Format                           : MPEG-4 Visual
Format profile                   : Advanced Simple@L5
Format settings, BVOP            : Yes
Format settings, QPel            : No
Format settings, GMC             : No warppoints
Format settings, Matrix          : Default (MPEG)
Muxing mode                      : Packed bitstream
Codec ID                         : XVID
Codec ID/Hint                    : XviD
Duration                         : 1h 45mn
Bit rate                         : 1 717 Kbps
Width                            : 704 pixels
Height                           : 304 pixels
Display aspect ratio             : 2.35:1
Frame rate                       : 25.000 fps
Color space                      : YUV
Chroma subsampling               : 4:2:0
Bit depth                        : 8 bits
Scan type                        : Progressive
Bits/(Pixel*Frame)               : 0.321
Stream size                      : 1.27 GiB (93%)
Writing library                  : XviD 1.2.1 (UTC 2008-12-04)

Audio
ID                               : 1
Format                           : MPEG Audio
Format version                   : Version 1
Format profile                   : Layer 3
Mode                             : Joint stereo
Mode extension                   : MS Stereo
Codec ID                         : 55
Codec ID/Hint                    : MP3
Duration                         : 1h 45mn
Bit rate mode                    : Constant
Bit rate                         : 128 Kbps
Channel(s)                       : 2 channels
Sampling rate                    : 44.1 KHz
Stream size                      : 96.9 MiB (7%)
Alignment                        : Split accross interleaves
Interleave, duration             : 40 ms (1.00 video frame)
Writing library                  : LAME3.98.2


SOURCES:
VIDEO: cinedub ... Thanks 
AUDIO: Thanks matey... Thanks

Plot:An American seminary student travels to Italy to take an exorcism course.
NOTES:

IMAGiNE bringing you another release.......... The Rite 2011.... 

Here we are with our encode of this movie for you all.. Now for the video we just made a script 
containing white balance,rgb eq,resize,crop,sharpness,chroma,brightness,contrast,ect.With 
the audio it was just a case of syncing the audio and muxing to our encode...
FYI video ok got lite flicker nothing to bad hardcode subs for non english parts.Now there 
is 99 lines of subs and most we dont want as the audio is english did not crop or blur 
as not much will be left still is very watchable and audio real nice...
Enjoy 
[/code]
Screens:
[img]http://img808.imageshack.us/img808/2738/98766560.jpg[/img]
[img]http://img21.imageshack.us/img21/706/19679706.jpg[/img]
[img]http://img848.imageshack.us/img848/9383/25609947.jpg[/img]